<svg id="svg3336" xmlns="http://www.w3.org/2000/svg" viewBox="0 0 3422.3552 3397.8285">
  <defs>
    <style>
      .cls-1, .cls-10, .cls-11, .cls-12, .cls-2, .cls-3, .cls-4, .cls-5, .cls-6, .cls-7, .cls-8, .cls-9 {
        fill: none;
      }

      .cls-1, .cls-10, .cls-11, .cls-12, .cls-13, .cls-2, .cls-3, .cls-4, .cls-5, .cls-6, .cls-7, .cls-8, .cls-9 {
        stroke: #fff;
      }

      .cls-1 {
        stroke-width: 46.063px;
      }

      .cls-2 {
        stroke-width: 36.4252px;
      }

      .cls-3 {
        stroke-width: 39.9685px;
      }

      .cls-4 {
        stroke-width: 50.5984px;
      }

      .cls-5 {
        stroke-width: 54.1417px;
      }

      .cls-6 {
        stroke-width: 47.0551px;
      }

      .cls-7 {
        stroke-width: 32.8819px;
      }

      .cls-8 {
        stroke-width: 43.5118px;
      }

      .cls-9 {
        stroke-width: 18.7087px;
      }

      .cls-10 {
        stroke-width: 40.1137px;
      }

      .cls-11 {
        stroke-width: 15.1654px;
      }

      .cls-12 {
        stroke-width: 22.252px;
      }

      .cls-13 {
        fill: #fff;
        fill-rule: evenodd;
      }
    </style>
  </defs>
  <title>LogoWhite</title>
  <g id="layer3">
    <path id="path4216" class="cls-1" d="M2951.6343,804.5936l266.74-166.166,223.0122-61.2191-188.03-87.4558-43.7278,148.6749-301.7226-65.5919Z" transform="translate(-85.6657 -207.535)"/>
    <path id="path4218" class="cls-2" d="M3152.7827,704.0194l205.521,61.2191-153.0476,34.9823Z" transform="translate(-85.6657 -207.535)"/>
    <path id="path4220" class="cls-3" d="M3200.8833,804.5936,2921.0247,975.1325l13.1184-157.4205L3148.41,686.5283Z" transform="translate(-85.6657 -207.535)"/>
    <path id="path4222" class="cls-3" d="M2951.9587,542.2261l165.8418-131.1837,148.6748,83.083-65.5918,126.811Z" transform="translate(-85.6657 -207.535)"/>
    <path id="path4224" class="cls-4" d="M3117.8,415.4152l-271.113-170.5389-65.5918,157.4205Z" transform="translate(-85.6657 -207.535)"/>
    <path id="path4226" class="cls-5" d="M2798.5864,271.1131l-157.42,83.083,118.0652,48.1007Z" transform="translate(-85.6657 -207.535)"/>
    <path id="path4230" class="cls-6" d="M2628.0476,345.4505l17.4912-109.32,192.4029-4.3728Z" transform="translate(-85.6657 -207.535)"/>
    <path id="path4232" class="cls-4" d="M2601.811,271.1131,2466.2544,402.2968l122.4382,170.5389Z" transform="translate(-85.6657 -207.535)"/>
    <path id="path4234" class="cls-4" d="M2632.42,585.954,2767.9771,406.67l-144.3023-61.2191Z" transform="translate(-85.6657 -207.535)"/>
    <path id="path4236" class="cls-4" d="M2614.9292,581.5813l179.2844,323.5865,122.438,30.61L2886.042,594.7,2732.9944,717.1379,2719.876,472.2615Z" transform="translate(-85.6657 -207.535)"/>
    <path id="path4240" class="cls-4" d="M2789.8411,402.2968l122.33,144.41,144.41-131.2918Z" transform="translate(-85.6657 -207.535)"/>
    <path id="path4244" class="cls-5" d="M2448.7632,432.9064c-63.4854,113.0694-83.7717,162.175-113.6924,218.64l-96.2014,192.4028,218.6394,271.113L2509.9822,830.83l74.3374-8.7456,21.864-257.9947-266.74,91.8286-91.8287,161.7933L2509.9822,830.83l83.083-4.3728,13.1184-266.74Z" transform="translate(-85.6657 -207.535)"/>
    <path id="path4246" class="cls-4" d="M2584.32,822.0848l196.7757,69.9646" transform="translate(-85.6657 -207.535)"/>
    <path id="path4248" class="cls-3" d="M2741.74,537.8533l109.32-61.2191" transform="translate(-85.6657 -207.535)"/>
    <path id="path4250" class="cls-7" d="M2737.3674,581.5813l96.2014,39.3551" transform="translate(-85.6657 -207.535)"/>
    <path id="path4268" class="cls-6" d="M2926.042,988.1l53.771,241.97-268.8552-22.4045Z" transform="translate(-85.6657 -207.535)"/>
    <path id="path4270" class="cls-4" d="M2576.53,835.7482l264.3743,228.5269" transform="translate(-85.6657 -207.535)"/>
    <path id="path4274" class="cls-6" d="M2468.9878,1149.4127l331.5884-116.504" transform="translate(-85.6657 -207.535)"/>
    <path id="path4278" class="cls-4" d="M2473.469,1144.9318l62.7329,120.9848,202.3042-73.206" transform="translate(-85.6657 -207.535)"/>
    <path id="path4282" class="cls-6" d="M2981.6489,1237.9342l328.59,523.31-198.7766,259.6266-16.2268-348.8732Z" transform="translate(-85.6657 -207.535)"/>
    <path id="path4328" class="cls-4" d="M3306.1821,1838.3208l-20.2832,251.5132-271.7966,324.5332,97.36-316.42,8.1133-20.2832Z" transform="translate(-85.6657 -207.535)"/>
    <path id="path4332" class="cls-4" d="M2547.5857,1266.3309l56.7932,543.5932,503.0264,133.87" transform="translate(-85.6657 -207.535)"/>
    <path id="path4334" class="cls-4" d="M2604.3789,1842.3774l470.5732,332.6465-85.19,304.25-182.55-28.3967-198.7766-434.0631Z" transform="translate(-85.6657 -207.535)"/>
    <path id="path4336" class="cls-8" d="M2620.6057,2016.814l190.6631-28.3968" transform="translate(-85.6657 -207.535)"/>
    <path id="path4338" class="cls-6" d="M2235.2224,824.1544l-133.87,194.72h263.6831v170.38l154.1534,68.9633" transform="translate(-85.6657 -207.535)"/>
    <path id="path4340" class="cls-5" d="M1913.6656,1204.7848l-189.583,223.8127-60.85,705.86,352.93-722.0865,356.9866,750.4832,206.89-442.1765" transform="translate(-85.6657 -207.535)"/>
    <path id="path4342" class="cls-5" d="M1736.2527,1456.9941l275.8533-60.85L1879.82,1226.6523" transform="translate(-85.6657 -207.535)"/>
    <path id="path4344" class="cls-6" d="M2020.2194,1408.3142,2121.636,1022.931l-231.23,206.89" transform="translate(-85.6657 -207.535)"/>
    <path id="path4346" class="cls-4" d="M2117.5791,1039.1577l251.5132,150.0966-89.2466-40.5667,283.9666,596.33" transform="translate(-85.6657 -207.535)"/>
    <path id="path4348" class="cls-5" d="M2024.2759,1404.2574l543.5932,361.0433" transform="translate(-85.6657 -207.535)"/>
    <path id="path4350" class="cls-4" d="M1638.8927,2122.2874l726.1432,44.6232,166.3232,498.97,470.573-174.4366" transform="translate(-85.6657 -207.535)"/>
    <path id="path4352" class="cls-4" d="M2600.3225,2020.8706l-223.1167,162.2666,421.8933,247.4566" transform="translate(-85.6657 -207.535)"/>
    <path id="path4354" class="cls-4" d="M1728.1394,1428.5975l-190.6633,125.7566,117.6433,563.8766-539.5365-219.06-64.9066-121.7,494.9131-227.1732" transform="translate(-85.6657 -207.535)"/>
    <path id="path4356" class="cls-6" d="M2916.7422,2523.8972l-202.8333,551.7066-206.89,85.19-202.8332-393.4966,219.06-93.3032" transform="translate(-85.6657 -207.535)"/>
    <path id="path4358" class="cls-4" d="M2502.9624,3160.7935,2701.739,2653.71l97.36,105.4734-182.55,170.38,105.4734,89.2465" transform="translate(-85.6657 -207.535)"/>
    <path id="path4360" class="cls-8" d="M2515.1323,3168.907,2815.3257,3578.63l-121.7-478.6863Z" transform="translate(-85.6657 -207.535)"/>
    <path id="path4362" class="cls-8" d="M2807.2124,3542.12l137.9265-85.19,60.85,40.5666,56.7932-12.17,166.3233,97.36-722.0865-8.1133,97.36-73.02Z" transform="translate(-85.6657 -207.535)"/>
    <path id="path4364" class="cls-9" d="M2827.4956,3558.3467l206.89-48.68" transform="translate(-85.6657 -207.535)"/>
    <path id="path4366" class="cls-4" d="M2113.5227,2763.24l16.2266,231.23,162.2666-235.2866-247.4566-8.1133-535.48-263.6833,843.7864-328.59" transform="translate(-85.6657 -207.535)"/>
    <path id="path4368" class="cls-6" d="M1464.4562,2503.6138l77.0765,117.6433L1732.1959,2799.75l300.1933-48.68" transform="translate(-85.6657 -207.535)"/>
    <path id="path4370" class="cls-8" d="M1724.0826,2799.7505l174.4367,158.21,206.89-52.7368" transform="translate(-85.6657 -207.535)"/>
    <path id="path4372" class="cls-8" d="M1906.6326,2962.0168,2081.0691,3116.17l56.7934-137.9265" transform="translate(-85.6657 -207.535)"/>
    <path id="path4374" class="cls-5" d="M1610.4961,2414.3672l68.9633-308.3064-223.1166,170.38Z" transform="translate(-85.6657 -207.535)"/>
    <path id="path4376" class="cls-4" d="M1549.6461,2629.37l263.6832,442.1765,259.6268,48.68" transform="translate(-85.6657 -207.535)"/>
    <path id="path4378" class="cls-8" d="M2052.6726,3124.2834l56.7932,454.3465-283.9665-490.8565" transform="translate(-85.6657 -207.535)"/>
    <path id="path4380" class="cls-10" d="M2099.5713,3571.2329l139.33-106.0039,88.9951,54.9651,63.0007-31.4085,131.0511,90.0384-766.022-8.6358,102.9852-66.4821Z" transform="translate(-85.6657 -207.535)"/>
    <path id="path4382" class="cls-11" d="M2121.636,3570.5166l210.9465-40.5666" transform="translate(-85.6657 -207.535)"/>
    <path id="path4384" class="cls-5" d="M1062.8463,1781.5273,523.31,1813.9806,973.6,2195.3071Z" transform="translate(-85.6657 -207.535)"/>
    <path id="path4386" class="cls-3" d="M1042.563,1980.304l243.4,133.87-166.1314-201.945" transform="translate(-85.6657 -207.535)"/>
    <path id="path4388" class="cls-4" d="M1269.7362,2089.834l150.0966-32.4534,8.1132,194.72Z" transform="translate(-85.6657 -207.535)"/>
    <path id="path4390" class="cls-4" d="M985.77,2215.5906l462.46,283.9665-170.38-397.5532Z" transform="translate(-85.6657 -207.535)"/>
    <path id="path4392" class="cls-4" d="M551.7065,1834.264,93.3033,1862.6608l730.2,231.23-454.3465,81.1333,348.8732,170.38,105.4733-247.4565,170.38,137.9265-60.85,89.2466-186.6066-44.6233" transform="translate(-85.6657 -207.535)"/>
    <path id="path4394" class="cls-4" d="M170.38,1887.0006,356.9865,2162.854" transform="translate(-85.6657 -207.535)"/>
    <path id="path4396" class="cls-12" d="M3261.5588,682.1711c-3.7141-29.2411,28.17-42.4074,89.2466-60.85,56.2693,3.2285,101.8489-7.1935,105.4734,48.68-6.375,36.394-20.87,62.2378-81.1333,77.0767-59.0959-8.6249-108.4353-23.915-113.5867-64.9067Z" transform="translate(-85.6657 -207.535)"/>
    <path id="path4398" class="cls-9" d="M3261.5588,694.3411l190.6631-20.2833" transform="translate(-85.6657 -207.535)"/>
    <path id="path4402" class="cls-13" d="M2851.8357,503.6778c-31.572,31.1011-44.1377,62.2022-32.4534,93.3033l20.2832,40.5667,97.36-85.19Z" transform="translate(-85.6657 -207.535)"/>
    <path id="path4404" class="cls-13" d="M2859.949,540.1878l-8.1133,32.4533,32.4534-8.1133Z" transform="translate(-85.6657 -207.535)"/>
  </g>
</svg>
